<?xml version="1.0" standalone="no"?>
<!DOCTYPE svg PUBLIC "-//W3C//DTD SVG 20010904//EN"
 "http://www.w3.org/TR/2001/REC-SVG-20010904/DTD/svg10.dtd">
<svg version="1.0" xmlns="http://www.w3.org/2000/svg"
 width="354.000000pt" height="368.000000pt" viewBox="0 0 354.000000 368.000000"
 preserveAspectRatio="xMidYMid meet">

<g transform="translate(0.000000,368.000000) scale(0.100000,-0.100000)"
fill="#000000" stroke="none">
<path d="M1560 3615 c-294 -43 -545 -168 -749 -373 -175 -176 -258 -348 -302
-617 -21 -128 -22 -171 -22 -520 2 -560 29 -929 87 -1180 13 -55 29 -125 36
-155 19 -87 78 -259 105 -305 31 -53 88 -111 116 -120 32 -11 45 9 26 39 -17
26 -41 115 -33 123 3 3 14 -14 26 -36 23 -47 82 -116 114 -134 14 -8 101 -14
260 -17 232 -5 239 -6 253 -27 14 -21 12 -24 -32 -55 -30 -21 -59 -33 -83 -34
-50 -2 -92 -49 -92 -104 0 -29 5 -42 19 -50 12 -6 96 -10 205 -10 182 0 186 0
198 22 19 36 12 117 -16 187 -14 36 -26 66 -26 68 0 2 58 3 130 3 l130 0 -21
-52 c-11 -29 -25 -58 -31 -65 -14 -17 -13 -115 1 -141 11 -21 17 -22 206 -22
193 0 195 0 210 23 34 52 -17 137 -82 137 -24 0 -48 10 -77 32 -22 17 -43 33
-45 35 -2 2 2 14 9 28 l13 25 229 0 c248 0 258 2 310 57 15 15 41 53 57 83 28
51 31 53 31 25 0 -16 -9 -50 -21 -74 -37 -84 0 -96 71 -23 81 84 121 187 188
482 77 337 96 578 96 1210 0 405 -2 477 -17 560 -29 149 -53 228 -110 350 -22
48 -146 215 -189 256 -205 192 -395 292 -678 355 -115 26 -371 33 -500 14z
m540 -965 c28 -72 64 -118 98 -126 154 -35 286 -85 430 -163 l104 -56 -5 -145
c-4 -128 -8 -155 -34 -231 -168 -487 -701 -751 -1212 -599 -166 50 -292 123
-410 239 -173 171 -261 378 -261 616 l0 120 113 62 c207 113 462 182 756 203
75 5 146 10 159 10 29 0 100 96 155 211 l42 87 21 -87 c12 -47 32 -111 44
-141z m-1348 -567 c17 -20 28 -49 37 -97 7 -38 23 -96 37 -129 30 -71 28 -98
-7 -111 -37 -13 -74 -1 -119 40 -43 39 -80 122 -80 179 0 50 26 108 58 128 37
22 44 21 74 -10z m2107 12 c33 -16 61 -77 61 -130 0 -137 -149 -276 -219 -206
-19 19 -19 20 11 97 16 42 34 104 40 138 7 42 18 70 36 89 30 31 33 32 71 12z
m-631 -900 c46 -55 112 -141 148 -192 35 -51 69 -95 74 -98 6 -3 10 -15 10
-26 0 -11 7 -22 15 -26 14 -5 14 -8 -1 -24 -9 -11 -25 -19 -35 -19 -10 0 -24
-7 -33 -15 -8 -8 -20 -15 -26 -15 -17 0 -100 86 -100 103 0 8 -24 63 -53 123
-30 60 -57 126 -61 147 -7 39 -30 57 -48 39 -7 -7 -4 -51 12 -147 21 -124 22
-206 5 -223 -11 -11 -658 -14 -664 -3 -8 12 -5 247 4 362 l7 86 27 -28 c15
-15 46 -33 69 -40 36 -10 40 -14 31 -31 -5 -10 -7 -23 -4 -29 9 -14 37 11 31
28 -4 8 2 13 17 13 40 0 46 -12 49 -100 l3 -84 32 -7 c17 -3 49 -3 70 0 l38 6
3 88 c3 85 3 87 30 93 102 22 139 38 173 74 67 70 75 68 177 -55z m-475 51
c45 0 116 3 157 7 105 10 67 -10 -46 -25 -93 -13 -257 1 -278 22 -8 9 1 10 37
5 27 -4 85 -8 130 -9z m-346 -33 c-3 -10 -5 -4 -5 12 0 17 2 24 5 18 2 -7 2
-21 0 -30z m-71 -21 c-2 -4 -10 -55 -16 -112 -7 -58 -21 -125 -31 -149 -10
-24 -19 -49 -19 -55 0 -6 -19 -30 -41 -53 -33 -36 -46 -43 -77 -43 -44 0 -109
17 -117 31 -4 5 14 32 39 60 25 28 71 87 103 132 73 106 146 197 156 197 5 0
6 -3 3 -8z m63 -227 l-1 -225 -25 0 c-24 0 -24 0 -19 78 3 42 8 115 11 162 6
90 24 210 31 210 3 0 4 -101 3 -225z m401 140 c0 -63 -1 -65 -25 -65 -24 0
-25 2 -25 65 0 63 1 65 25 65 24 0 25 -2 25 -65z m710 -300 c-7 -8 -17 -15
-23 -15 -5 0 -2 9 8 20 21 23 35 19 15 -5z m-323 -130 c28 -84 29 -94 15 -101
-10 -4 -155 -10 -323 -12 l-307 -4 -5 29 c-3 15 -9 52 -12 81 -8 64 -25 83
-65 75 -19 -3 -30 -1 -30 5 0 8 96 11 321 11 177 0 324 3 327 6 3 3 15 5 26 5
17 0 26 -16 53 -95z m318 40 c3 -14 7 -35 10 -48 8 -41 -13 -93 -51 -122 -30
-23 -41 -26 -78 -21 -24 4 -51 13 -61 20 -22 16 -11 39 16 31 14 -5 20 0 25
20 9 35 0 41 -42 26 -50 -18 -62 -2 -24 32 16 15 30 34 30 41 0 23 19 30 90
37 36 3 68 7 72 7 4 1 10 -9 13 -23z m-1340 -29 c65 -8 126 -11 133 -8 11 4
13 -2 7 -26 -11 -54 1 -74 43 -70 36 3 37 4 40 46 2 23 7 42 12 42 15 0 24
-49 25 -128 0 -66 -3 -76 -24 -93 -27 -22 -78 -24 -196 -8 -152 21 -186 30
-217 58 l-31 27 18 60 c19 66 44 114 60 114 5 -1 64 -7 130 -14z m190 -56 c3
-5 1 -10 -4 -10 -6 0 -11 5 -11 10 0 6 2 10 4 10 3 0 8 -4 11 -10z m152 -107
c-2 -16 -4 -5 -4 22 0 28 2 40 4 28 2 -13 2 -35 0 -50z m564 -127 c-28 -58
-51 -115 -51 -125 0 -11 16 -33 35 -48 19 -15 35 -32 35 -37 0 -11 -148 -2
-160 10 -5 5 0 34 12 69 16 44 22 85 22 152 l1 92 70 3 c39 2 74 0 79 -4 5 -4
-14 -54 -43 -112z m-479 93 c-10 -39 -2 -134 18 -208 12 -45 20 -84 18 -87 -3
-2 -43 -7 -89 -10 l-84 -6 44 39 c49 44 49 48 5 135 -13 26 -24 51 -24 55 0 5
13 14 30 20 18 7 36 25 47 47 16 34 42 45 35 15z m56 -366 l-3 -28 -154 -3
c-160 -4 -197 4 -158 33 14 10 40 12 95 9 43 -3 104 -1 137 4 90 14 87 15 83
-15z m435 12 c125 -2 158 -10 142 -35 -5 -8 -50 -11 -154 -9 -80 1 -152 4
-158 7 -7 2 -13 15 -13 29 0 23 3 24 28 17 15 -4 84 -8 155 -9z"/>
<path d="M1199 2386 c-65 -14 -156 -53 -146 -62 3 -3 25 1 50 10 85 29 177 39
297 33 63 -3 125 -9 138 -13 12 -3 22 -2 22 3 0 33 -246 53 -361 29z"/>
<path d="M2043 2383 c-75 -17 -87 -38 -15 -26 26 4 106 8 177 8 107 0 143 -4
204 -23 83 -26 102 -23 44 6 -94 48 -287 65 -410 35z"/>
<path d="M1223 2250 c-43 -26 -87 -88 -103 -144 -7 -26 -11 -82 -9 -136 5
-128 8 -130 189 -130 181 0 184 2 188 129 3 66 -1 104 -13 142 -19 56 -72 122
-116 145 -39 20 -98 17 -136 -6z m77 -35 c0 -3 -10 -19 -22 -36 -20 -27 -23
-46 -28 -157 l-5 -127 -34 2 c-49 2 -56 15 -54 98 2 86 27 152 74 196 27 25
69 40 69 24z"/>
<path d="M2175 2252 c-89 -55 -129 -145 -123 -282 4 -125 3 -124 178 -128 151
-4 174 2 191 46 16 41 12 181 -6 231 -44 125 -154 185 -240 133z m63 -39 c-36
-70 -42 -96 -46 -205 l-4 -118 -29 0 c-50 0 -62 24 -57 111 5 92 37 162 88
197 33 22 55 29 48 15z"/>
<path d="M1767 2123 c-4 -3 -7 -16 -7 -27 0 -12 -13 -37 -28 -56 -40 -49 -52
-74 -52 -110 0 -54 71 -105 87 -63 4 10 -2 23 -15 34 -29 23 -28 47 3 89 35
48 49 94 35 120 -12 22 -14 23 -23 13z"/>
<path d="M1495 1788 c-67 -37 -86 -99 -44 -152 28 -36 130 -91 234 -126 l87
-29 76 25 c105 35 206 90 242 131 33 37 35 46 20 89 -28 78 -130 91 -261 35
l-77 -33 -90 36 c-91 37 -151 44 -187 24z m73 -55 c-10 -2 -18 -9 -18 -14 0
-5 -9 -9 -20 -9 -11 0 -20 -4 -20 -8 0 -5 25 -7 55 -4 37 3 55 1 55 -7 0 -6 5
-11 11 -11 6 0 9 7 5 15 -3 9 0 15 10 15 8 0 12 -4 9 -10 -3 -5 0 -10 7 -11 7
0 3 -4 -10 -9 -12 -5 -25 -18 -29 -27 -7 -19 -22 -33 -36 -33 -4 0 2 10 13 22
13 15 17 24 9 27 -6 2 -15 -2 -19 -9 -4 -7 -13 -10 -19 -6 -7 5 -9 1 -5 -11 4
-12 -2 -10 -19 9 -16 18 -27 23 -30 15 -3 -7 -8 0 -12 15 -7 29 1 52 15 43 5
-3 11 -1 15 5 3 5 16 9 28 9 17 -1 18 -2 5 -6z m470 -16 c6 -5 12 -13 12 -18
0 -12 -30 -39 -43 -38 -8 0 -8 2 1 6 10 4 10 8 0 21 -11 13 -10 15 5 9 13 -5
17 -3 15 5 -3 7 -22 14 -43 16 -24 2 -34 6 -26 11 15 9 61 2 79 -12z m-428 3
c0 -5 -10 -10 -22 -9 -22 0 -22 1 -3 9 11 5 21 9 23 9 1 1 2 -3 2 -9z m336
-11 c5 -9 -2 -10 -22 -6 -16 3 -23 4 -16 1 6 -3 10 -9 7 -13 -2 -5 8 -6 23 -4
27 5 27 5 -5 -16 -23 -14 -31 -26 -27 -38 5 -15 4 -16 -5 -3 -6 8 -8 22 -6 30
6 20 -10 46 -19 31 -4 -6 -12 -11 -17 -11 -16 0 1 21 25 30 30 12 54 12 62 -1z
m-194 -49 c9 0 32 7 52 15 20 8 36 11 36 6 0 -6 -19 -16 -41 -23 l-42 -12 34
-12 c19 -7 44 -10 56 -7 13 3 29 -2 38 -10 22 -23 19 -25 -22 -22 -20 2 -50 1
-67 -2 l-30 -6 25 -10 24 -9 -24 -9 c-13 -5 -26 -7 -29 -4 -3 3 1 5 9 6 8 0 4
4 -9 10 -20 8 -22 11 -10 23 8 8 23 16 34 18 15 4 13 6 -11 12 -16 4 -38 11
-47 17 -25 13 -27 12 -25 -11 1 -14 8 -20 26 -20 34 0 15 -16 -29 -25 -21 -4
-30 -3 -22 3 7 5 10 16 6 26 -4 10 1 25 11 36 10 11 15 20 11 20 -4 0 -4 5 0
12 5 8 11 6 19 -5 7 -10 19 -17 27 -17z m238 11 c0 -5 -11 -11 -25 -13 -28 -6
-35 8 -7 15 28 8 32 7 32 -2z m-310 -18 c0 -7 -4 -13 -9 -13 -5 0 -11 6 -14
13 -3 8 1 14 9 14 8 0 14 -6 14 -14z m296 -18 c-11 -8 -25 -15 -30 -15 -6 1 0
7 14 15 32 19 40 18 16 0z m-309 -29 c-6 -17 -31 -13 -35 6 -2 12 2 15 18 11
11 -3 19 -11 17 -17z m192 -26 c-6 -5 -18 -6 -26 -3 -19 8 -16 11 13 11 17 0
22 -3 13 -8z m-114 -10 c3 -5 -1 -10 -9 -10 -8 0 -18 5 -21 10 -3 6 1 10 9 10
8 0 18 -4 21 -10z"/>
<path d="M1550 1680 c20 -13 33 -13 25 0 -3 6 -14 10 -23 10 -15 0 -15 -2 -2
-10z"/>
<path d="M1917 1174 c-3 -4 -2 -16 4 -26 13 -24 35 -9 26 16 -7 17 -19 21 -30
10z"/>
<path d="M1645 1150 c-8 -13 4 -32 16 -25 12 8 12 35 0 35 -6 0 -13 -4 -16
-10z"/>
<path d="M1882 1143 c5 -25 28 -28 28 -4 0 12 -6 21 -16 21 -9 0 -14 -7 -12
-17z"/>
</g>
</svg>
